<?xml version="1.0" standalone="no"?>
<!DOCTYPE svg PUBLIC "-//W3C//DTD SVG 20010904//EN"
 "http://www.w3.org/TR/2001/REC-SVG-20010904/DTD/svg10.dtd">
<svg version="1.0" xmlns="http://www.w3.org/2000/svg"
 width="260.000000pt" height="260.000000pt" viewBox="0 0 260.000000 260.000000"
 preserveAspectRatio="xMidYMid meet">
<metadata>
Created by potrace 1.14, written by Peter Selinger 2001-2017
</metadata>
<g transform="translate(0.000000,260.000000) scale(0.100000,-0.100000)"
fill="#000000" stroke="none">
<path d="M0 1300 l0 -1300 1300 0 1300 0 0 1300 0 1300 -1300 0 -1300 0 0
-1300z m1294 1028 c7 -118 13 -538 8 -538 -1 0 -30 22 -65 49 -74 58 -151 98
-205 107 -53 8 -125 -23 -146 -65 -42 -80 -7 -167 134 -331 l85 -99 140 0
c218 -2 327 -27 418 -96 71 -54 101 -125 105 -251 5 -135 -12 -189 -82 -259
-63 -62 -126 -93 -233 -113 l-83 -16 0 -81 c0 -77 24 -372 35 -443 4 -23 2
-32 -8 -32 -7 0 -72 17 -143 39 l-129 38 2 54 c9 332 15 741 9 762 -6 26 -6
25 -56 -27 -93 -98 -204 -140 -370 -140 -58 0 -121 3 -140 7 l-35 7 -65 322
c-35 178 -66 334 -68 348 -4 21 9 12 74 -51 147 -140 272 -221 347 -223 32 -1
44 5 68 32 16 18 29 39 29 47 0 59 -79 153 -228 272 -114 91 -163 160 -170
237 -2 30 1 70 8 90 28 86 216 236 415 331 98 47 312 134 332 135 7 0 13 -38
17 -112z"/>
<path d="M1384 1206 c-17 -13 -19 -30 -23 -147 l-3 -132 33 7 c64 12 123 49
146 91 25 43 30 113 12 147 -22 41 -125 63 -165 34z"/>
</g>
</svg>
